HIERARCHY
ROOT hip
{
  OFFSET 0 0 0
  CHANNELS 6 Xposition Yposition Zposition Zrotation Yrotation Xrotation
  JOINT abdomen
  {
    OFFSET 0 20.6881 -0.73152
    CHANNELS 3 Zrotation Xrotation Yrotation
    JOINT chest
    {
      OFFSET 0 11.7043 -0.48768
      CHANNELS 3 Zrotation Xrotation Yrotation
      JOINT neck
      {
        OFFSET 0 22.1894 -2.19456
        CHANNELS 3 Zrotation Xrotation Yrotation
        JOINT head
        {
          OFFSET -0.24384 7.07133 1.2192
          CHANNELS 3 Zrotation Xrotation Yrotation
          JOINT leftEye
          {
            OFFSET 4.14528 8.04674 8.04672
            CHANNELS 3 Zrotation Xrotation Yrotation
            End Site
            {
              OFFSET 1 0 0
            }
          }
          JOINT rightEye
          {
            OFFSET -3.6576 8.04674 8.04672
            CHANNELS 3 Zrotation Xrotation Yrotation
            End Site
            {
              OFFSET 1 0 0
            }
          }
        }
      }
      JOINT rCollar
      {
        OFFSET -2.68224 19.2634 -4.8768
        CHANNELS 3 Zrotation Xrotation Yrotation
        JOINT rShldr
        {
          OFFSET -8.77824 -1.95073 1.46304
          CHANNELS 3 Zrotation Xrotation Yrotation
          JOINT rForeArm
          {
            OFFSET -28.1742 -1.7115 0.48768
            CHANNELS 3 Zrotation Xrotation Yrotation
            JOINT rHand
            {
              OFFSET -22.5879 0.773209 7.07136
              CHANNELS 3 Zrotation Xrotation Yrotation
              JOINT rThumb1
              {
                OFFSET -1.2192 -0.487915 3.41376
                CHANNELS 3 Zrotation Xrotation Yrotation
                JOINT rThumb2
                {
                  OFFSET -3.37035 -0.52449 3.41376
                  CHANNELS 3 Zrotation Xrotation Yrotation
                  End Site
                  {
                    OFFSET -1.78271 -1.18214 1.43049
                  }
                }
              }
              JOINT rIndex1
              {
                OFFSET -7.75947 0.938293 5.60832
                CHANNELS 3 Zrotation Xrotation Yrotation
                JOINT rIndex2
                {
                  OFFSET -2.54057 -0.884171 1.56538
                  CHANNELS 3 Zrotation Xrotation Yrotation
                  End Site
                  {
                    OFFSET -1.62519 -0.234802 1.16502
                  }
                }
              }
              JOINT rMid1
              {
                OFFSET -8.24714 1.18213 3.41376
                CHANNELS 3 Zrotation Xrotation Yrotation
                JOINT rMid2
                {
                  OFFSET -3.10165 -0.590103 1.0647
                  CHANNELS 3 Zrotation Xrotation Yrotation
                  End Site
                  {
                    OFFSET -2.48547 -0.328903 0.83742
                  }
                }
              }
              JOINT rRing1
              {
                OFFSET -8.82822 0.546677 1.51678
                CHANNELS 3 Zrotation Xrotation Yrotation
                JOINT rRing2
                {
                  OFFSET -2.60934 -0.819778 -0.0198488
                  CHANNELS 3 Zrotation Xrotation Yrotation
                  End Site
                  {
                    OFFSET -2.33842 -0.294052 0.168128
                  }
                }
              }
              JOINT rPinky1
              {
                OFFSET -8.27202 -0.0477905 -0.4584
                CHANNELS 3 Zrotation Xrotation Yrotation
                JOINT rPinky2
                {
                  OFFSET -1.82734 -0.647385 -0.700984
                  CHANNELS 3 Zrotation Xrotation Yrotation
                  End Site
                  {
                    OFFSET -1.69225 -0.51767 -0.607171
                  }
                }
              }
            }
          }
        }
      }
      JOINT lCollar
      {
        OFFSET 2.68224 19.2634 -4.8768
        CHANNELS 3 Zrotation Xrotation Yrotation
        JOINT lShldr
        {
          OFFSET 8.77824 -1.95073 1.46304
          CHANNELS 3 Zrotation Xrotation Yrotation
          JOINT lForeArm
          {
            OFFSET 28.1742 -1.7115 0.48768
            CHANNELS 3 Zrotation Xrotation Yrotation
            JOINT lHand
            {
              OFFSET 22.5879 0.773209 7.07136
              CHANNELS 3 Zrotation Xrotation Yrotation
              JOINT lThumb1
              {
                OFFSET 1.2192 -0.487915 3.41376
                CHANNELS 3 Zrotation Xrotation Yrotation
                JOINT lThumb2
                {
                  OFFSET 3.37035 -0.52449 3.41376
                  CHANNELS 3 Zrotation Xrotation Yrotation
                  End Site
                  {
                    OFFSET 1.78271 -1.18214 1.43049
                  }
                }
              }
              JOINT lIndex1
              {
                OFFSET 7.75947 0.938293 5.60832
                CHANNELS 3 Zrotation Xrotation Yrotation
                JOINT lIndex2
                {
                  OFFSET 2.54057 -0.884171 1.56538
                  CHANNELS 3 Zrotation Xrotation Yrotation
                  End Site
                  {
                    OFFSET 1.62519 -0.234802 1.16502
                  }
                }
              }
              JOINT lMid1
              {
                OFFSET 8.24714 1.18213 3.41376
                CHANNELS 3 Zrotation Xrotation Yrotation
                JOINT lMid2
                {
                  OFFSET 3.10165 -0.590103 1.0647
                  CHANNELS 3 Zrotation Xrotation Yrotation
                  End Site
                  {
                    OFFSET 2.48547 -0.328903 0.83742
                  }
                }
              }
              JOINT lRing1
              {
                OFFSET 8.82822 0.546677 1.51678
                CHANNELS 3 Zrotation Xrotation Yrotation
                JOINT lRing2
                {
                  OFFSET 2.60934 -0.819778 -0.0198488
                  CHANNELS 3 Zrotation Xrotation Yrotation
                  End Site
                  {
                    OFFSET 2.33842 -0.294052 0.168128
                  }
                }
              }
              JOINT lPinky1
              {
                OFFSET 8.27202 -0.0477905 -0.4584
                CHANNELS 3 Zrotation Xrotation Yrotation
                JOINT lPinky2
                {
                  OFFSET 1.82734 -0.647385 -0.700984
                  CHANNELS 3 Zrotation Xrotation Yrotation
                  End Site
                  {
                    OFFSET 1.69225 -0.51767 -0.607171
                  }
                }
              }
            }
          }
        }
      }
    }
  }
  JOINT rButtock
  {
    OFFSET -8.77824 4.35084 1.2192
    CHANNELS 3 Zrotation Xrotation Yrotation
    JOINT rThigh
    {
      OFFSET 0 -1.70687 -2.19456
      CHANNELS 3 Zrotation Xrotation Yrotation
      JOINT rShin
      {
        OFFSET 0 -36.8199 0.73152
        CHANNELS 3 Zrotation Xrotation Yrotation
        JOINT rFoot
        {
          OFFSET 0.73152 -45.1104 -5.12064
          CHANNELS 3 Zrotation Xrotation Yrotation
          End Site
          {
            OFFSET -1.1221 -3.69964 12.103
          }
        }
      }
    }
  }
  JOINT lButtock
  {
    OFFSET 8.77824 4.35084 1.2192
    CHANNELS 3 Zrotation Xrotation Yrotation
    JOINT lThigh
    {
      OFFSET 0 -1.70687 -2.19456
      CHANNELS 3 Zrotation Xrotation Yrotation
      JOINT lShin
      {
        OFFSET 0 -36.8199 0.73152
        CHANNELS 3 Zrotation Xrotation Yrotation
        JOINT lFoot
        {
          OFFSET -0.73152 -45.1104 -5.12064
          CHANNELS 3 Zrotation Xrotation Yrotation
          End Site
          {
            OFFSET 1.1221 -3.69964 12.103
          }
        }
      }
    }
  }
}
MOTION
Frames:	5
Frame Time:	0.00833333
-22.2736 71.0069 17.9082 -78.0388 -80.2114 83.5237 8.40604 -6.78356 5.05883 -3.54566 -3.04302 1.07816 -8.77109 8.94698 -2.89976 27.3754 -66.3415 9.16145 -0.0 0.0 0.0 -0.0 0.0 0.0 1.92326e-13 2.06497e-12 -2.81688e-14 24.022 -33.9822 91.5743 -25.4065 -21.9973 54.4317 -0.231064 13.5626 1.9429 -1.82678e-10 1.28924e-09 8.63338e-10 -3.05161e-10 2.22497e-09 1.50102e-09 -1.8268e-10 1.28926e-09 8.63333e-10 7.73091 5.47488 0.417314 -1.82679e-10 1.28924e-09 8.63335e-10 2.90554 0.965183 0.102902 -1.82668e-10 1.28924e-09 8.63337e-10 10.2786 0.731801 0.0259123 -1.82682e-10 1.28924e-09 8.63347e-10 2.22167 -0.733487 -0.20892 1.9236e-13 2.06497e-12 -2.82767e-14 -32.0332 -25.1647 -89.3897 25.4463 -22.0889 -54.5833 0.777874 -24.2184 3.62443 1.59353e-10 4.80195e-10 -7.87493e-10 2.88908e-10 8.32398e-10 -1.35341e-09 1.59343e-10 4.80199e-10 -7.8747e-10 -7.73091 5.47488 -0.417314 1.59355e-10 4.80198e-10 -7.87487e-10 -2.90554 0.965183 -0.102902 1.59348e-10 4.80198e-10 -7.87492e-10 -10.2786 0.731801 -0.0259123 1.59357e-10 4.80199e-10 -7.875e-10 -2.22167 -0.733487 0.20892 -2.03217e-16 0.0 -3.88251e-19 13.4578 -1.80374 2.57886 -0.0641207 15.9546 0.32119 -2.85919 -11.5152 -12.8738 2.03217e-16 0.0 3.88251e-19 16.7635 -35.9499 -2.36511 0.0771377 20.5396 -0.0854065 0.247629 0.597142 4.8159
-22.9455 70.8998 17.9489 -78.3029 -80.2199 83.8745 8.33488 -6.83175 5.18163 -3.58146 -3.00255 1.10974 -8.75833 8.92118 -2.89596 27.3358 -66.2316 9.13176 -0.0 0.0 0.0 -0.0 0.0 0.0 2.05924e-13 2.16248e-12 -3.8117e-14 24.2606 -33.5754 91.7533 -25.455 -22.1092 54.6127 -0.25453 14.2179 2.04068 -6.50156e-10 2.15677e-09 1.19095e-09 -1.10999e-09 3.72624e-09 2.07363e-09 -6.50158e-10 2.15678e-09 1.19095e-09 7.73091 5.47488 0.417314 -6.50157e-10 2.15676e-09 1.19095e-09 2.90554 0.965183 0.102902 -6.50146e-10 2.15676e-09 1.19095e-09 10.2786 0.731801 0.0259123 -6.50159e-10 2.15676e-09 1.19096e-09 2.22167 -0.733487 -0.20892 2.05971e-13 2.16248e-12 -3.81667e-14 -32.3113 -24.9481 -89.7396 25.5314 -22.2869 -54.9028 0.813071 -24.7184 3.70942 -5.94223e-11 4.73384e-10 -1.04669e-09 -8.35842e-11 8.22625e-10 -1.80505e-09 -5.9433e-11 4.73388e-10 -1.04666e-09 -7.73091 5.47488 -0.417314 -5.94206e-11 4.73387e-10 -1.04668e-09 -2.90554 0.965183 -0.102902 -5.94272e-11 4.73387e-10 -1.04668e-09 -10.2786 0.731801 -0.0259123 -5.94179e-11 4.73388e-10 -1.04669e-09 -2.22167 -0.733487 0.20892 -2.03217e-16 0.0 -3.88251e-19 13.3924 -1.55369 2.57244 -0.0684672 16.2746 0.325902 -2.90261 -11.7618 -12.8871 2.03217e-16 0.0 3.88251e-19 16.6663 -36.1377 -2.63969 0.0731207 19.7819 -0.0479321 0.215663 0.896365 4.91059
-23.6146 70.7926 17.9937 -78.5637 -80.2328 84.2167 8.26138 -6.87853 5.30172 -3.61499 -2.95974 1.14067 -8.74516 8.89017 -2.89238 27.288 -66.104 9.09459 -0.0 0.0 0.0 -0.0 0.0 0.0 1.16918e-13 1.28325e-12 -1.43766e-14 24.4808 -33.1288 91.903 -25.5102 -22.2373 54.8216 -0.279647 14.8878 2.14119 -1.13834e-09 2.54024e-09 1.15263e-09 -1.95433e-09 4.39243e-09 2.01153e-09 -1.13834e-09 2.54026e-09 1.15262e-09 7.73091 5.47488 0.417314 -1.13834e-09 2.54024e-09 1.15263e-09 2.90554 0.965183 0.102902 -1.13833e-09 2.54024e-09 1.15263e-09 10.2786 0.731801 0.0259123 -1.13834e-09 2.54024e-09 1.15264e-09 2.22167 -0.733487 -0.20892 1.16942e-13 1.28325e-12 -1.44255e-14 -32.5715 -24.693 -90.0456 25.6244 -22.5069 -55.2595 0.84961 -25.2239 3.79603 -4.15619e-10 2.33924e-10 -9.99603e-10 -6.98171e-10 4.10548e-10 -1.73294e-09 -4.15628e-10 2.33928e-10 -9.99581e-10 -7.73091 5.47488 -0.417314 -4.15617e-10 2.33928e-10 -9.99595e-10 -2.90554 0.965183 -0.102902 -4.15624e-10 2.33928e-10 -9.99602e-10 -10.2786 0.731801 -0.0259123 -4.15614e-10 2.33929e-10 -9.9961e-10 -2.22167 -0.733487 0.20892 -2.03217e-16 0.0 -3.88251e-19 13.3149 -1.31975 2.55763 -0.0732366 16.6353 0.33154 -2.93932 -11.9908 -12.8865 2.03217e-16 0.0 3.88251e-19 16.5533 -36.3028 -2.91344 0.0707291 19.1186 -0.0123095 0.180677 1.19171 4.98603
-24.2821 70.6873 18.0419 -78.8212 -80.2499 84.5483 8.18485 -6.92428 5.42008 -3.64617 -2.91459 1.17126 -8.73138 8.85417 -2.88882 27.2329 -65.9601 9.05097 -0.0 0.0 0.0 -0.0 0.0 0.0 -3.73374e-14 -2.14023e-13 3.0206e-14 24.6851 -32.6455 92.0261 -25.5708 -22.3795 55.0564 -0.306931 15.5761 2.24517 -1.66977e-09 2.6672e-09 8.94672e-10 -2.87568e-09 4.61648e-09 1.56883e-09 -1.66977e-09 2.66721e-09 8.94663e-10 7.73091 5.47488 0.417314 -1.66977e-09 2.6672e-09 8.94671e-10 2.90554 0.965183 0.102902 -1.66976e-09 2.6672e-09 8.94673e-10 10.2786 0.731801 0.0259123 -1.66977e-09 2.6672e-09 8.94685e-10 2.22167 -0.733487 -0.20892 -3.73584e-14 -2.14029e-13 3.01252e-14 -32.8155 -24.4034 -90.3094 25.7236 -22.7456 -55.6522 0.887693 -25.736 3.88455 -8.72127e-10 -1.60394e-10 -7.5655e-10 -1.489e-09 -2.69257e-10 -1.32595e-09 -8.72133e-10 -1.60389e-10 -7.56535e-10 -7.73091 5.47488 -0.417314 -8.72126e-10 -1.60388e-10 -7.56546e-10 -2.90554 0.965183 -0.102902 -8.72132e-10 -1.60388e-10 -7.56549e-10 -10.2786 0.731801 -0.0259123 -8.72123e-10 -1.60387e-10 -7.56556e-10 -2.22167 -0.733487 0.20892 -2.03217e-16 0.0 -3.88251e-19 13.2253 -1.10175 2.53555 -0.0784382 17.0346 0.338002 -2.96976 -12.2035 -12.8733 2.03217e-16 0.0 3.88251e-19 16.4248 -36.4444 -3.18896 0.0693971 18.5445 0.0218941 0.142949 1.48558 5.04387
-24.9477 70.5828 18.0934 -79.0777 -80.2711 84.8706 8.10459 -6.96714 5.53672 -3.67515 -2.86696 1.20151 -8.71711 8.8141 -2.88569 27.167 -65.7979 8.99663 -0.0 0.0 0.0 -0.0 0.0 0.0 -1.89219e-13 -1.70283e-12 7.2035e-14 24.8625 -32.1185 92.1077 -25.6395 -22.5426 55.3232 -0.335936 16.2692 2.35063 -2.08944e-09 2.63179e-09 5.97927e-10 -3.60414e-09 4.55907e-09 1.05772e-09 -2.08944e-09 2.6318e-09 5.97913e-10 7.73091 5.47488 0.417314 -2.08944e-09 2.63179e-09 5.97926e-10 2.90554 0.965183 0.102902 -2.08944e-09 2.63179e-09 5.97928e-10 10.2786 0.731801 0.0259123 -2.08944e-09 2.63179e-09 5.97942e-10 2.22167 -0.733487 -0.20892 -1.89286e-13 -1.70284e-12 7.19131e-14 -33.0355 -24.0728 -90.5204 25.8308 -23.0084 -56.0815 0.927153 -26.252 3.97454 -1.2859e-09 -5.18602e-10 -5.37672e-10 -2.20546e-09 -8.86744e-10 -9.59837e-10 -1.28591e-09 -5.18597e-10 -5.37664e-10 -7.73091 5.47488 -0.417314 -1.2859e-09 -5.18596e-10 -5.37672e-10 -2.90554 0.965183 -0.102902 -1.28591e-09 -5.18596e-10 -5.37671e-10 -10.2786 0.731801 -0.0259123 -1.2859e-09 -5.18594e-10 -5.37678e-10 -2.22167 -0.733487 0.20892 -2.03217e-16 0.0 -3.88251e-19 13.1215 -0.90149 2.50445 -0.0838674 17.4795 0.345254 -2.99097 -12.3901 -12.8446 2.03217e-16 0.0 3.88251e-19 16.2802 -36.5613 -3.45704 0.0689615 18.0575 0.0546054 0.103039 1.77489 5.0767
